<?xml version="1.0" standalone="no"?>
<!DOCTYPE svg PUBLIC "-//W3C//DTD SVG 20010904//EN"
 "http://www.w3.org/TR/2001/REC-SVG-20010904/DTD/svg10.dtd">
<svg version="1.0" xmlns="http://www.w3.org/2000/svg"
 width="512.000000pt" height="512.000000pt" viewBox="0 0 512.000000 512.000000"
 preserveAspectRatio="xMidYMid meet">
<metadata>
Created by potrace 1.14, written by Peter Selinger 2001-2017
</metadata>
<g transform="translate(0.000000,512.000000) scale(0.100000,-0.100000)"
fill="#000000" stroke="none">
<path d="M2476 4425 c-25 -23 -54 -43 -246 -167 -41 -26 -84 -55 -95 -64 -11
-9 -30 -21 -42 -27 -13 -5 -23 -14 -23 -19 0 -5 -4 -7 -9 -4 -5 3 -11 -1 -15
-9 -3 -8 -10 -15 -16 -15 -7 0 -44 -21 -83 -46 -40 -26 -73 -46 -74 -45 -2 0
-12 -8 -23 -19 -12 -12 -25 -18 -30 -15 -6 4 -10 2 -10 -4 0 -8 -96 -74 -110
-76 -3 0 -20 -10 -37 -23 -18 -13 -33 -21 -33 -18 0 3 -8 -1 -17 -10 -10 -9
-49 -35 -86 -59 -38 -24 -104 -67 -148 -95 -43 -28 -81 -49 -83 -48 -2 2 -16
-8 -30 -21 -14 -14 -26 -20 -26 -15 0 5 -5 1 -11 -8 -5 -10 -14 -18 -20 -18
-5 0 -31 -15 -57 -32 -67 -46 -85 -57 -102 -65 -8 -4 -17 -9 -20 -13 -3 -3
-23 -17 -45 -30 -22 -13 -42 -27 -45 -31 -3 -4 -12 -9 -20 -11 -8 -2 -22 -11
-31 -20 -8 -9 -21 -18 -28 -20 -8 -2 -25 -13 -39 -26 -14 -12 -36 -25 -48 -28
-12 -3 -25 -12 -28 -21 -3 -8 -10 -11 -16 -8 -6 3 -13 -1 -16 -9 -3 -9 -15
-16 -26 -16 -10 0 -17 -4 -14 -9 3 -5 -8 -14 -24 -21 -17 -7 -30 -15 -30 -19
0 -3 -18 -15 -40 -25 -22 -11 -40 -22 -40 -26 0 -4 -14 -13 -31 -21 -18 -7
-45 -23 -60 -37 -16 -13 -29 -20 -29 -15 0 4 -4 3 -8 -3 -7 -11 -212 -148
-222 -149 -3 0 -21 -12 -41 -28 -20 -15 -39 -27 -43 -27 -5 0 -22 -10 -39 -22
-17 -12 -27 -16 -22 -8 5 9 4 11 -3 6 -7 -4 -12 -14 -12 -22 0 -10 -5 -12 -12
-8 -10 6 -10 5 -1 -7 7 -9 31 -22 53 -29 22 -7 40 -17 40 -22 0 -4 4 -8 10 -8
5 0 44 -20 86 -45 41 -25 78 -45 80 -45 2 0 21 -11 42 -24 20 -12 41 -23 46
-24 5 0 12 -5 15 -10 6 -10 48 -36 116 -73 22 -12 42 -24 45 -28 3 -3 26 -17
52 -30 27 -13 48 -28 48 -33 0 -5 4 -6 10 -3 5 3 10 2 10 -4 0 -6 11 -13 25
-17 14 -3 25 -10 25 -15 0 -5 5 -9 10 -9 6 0 29 -12 53 -27 23 -14 48 -26 54
-26 7 0 13 -6 13 -14 0 -7 5 -13 10 -13 6 0 29 -12 53 -27 23 -15 45 -26 50
-25 4 1 6 -3 5 -10 -2 -7 6 -12 17 -13 17 0 20 7 20 43 1 23 -3 42 -7 42 -5 0
-5 8 -1 18 7 16 8 42 3 67 -7 29 -5 82 3 93 6 7 6 12 0 12 -5 0 -8 34 -8 75 0
41 -4 75 -9 75 -5 0 -3 7 4 15 7 8 8 15 3 15 -17 0 4 114 30 165 14 28 26 47
27 43 0 -4 12 5 28 21 15 15 37 31 50 35 12 4 22 11 22 14 0 4 12 9 27 10 15
1 29 6 32 10 3 5 232 8 508 8 277 -1 503 3 503 7 0 5 6 5 13 0 18 -11 937 -12
944 0 3 5 8 4 13 -2 5 -8 14 -9 32 -2 14 5 28 7 31 4 3 -2 155 -7 339 -9 353
-4 354 -4 411 -28 21 -8 40 -14 43 -13 3 1 12 -9 19 -23 8 -14 14 -21 15 -15
0 5 12 -8 27 -30 14 -22 31 -43 37 -47 6 -4 7 -8 3 -8 -4 0 -2 -10 4 -22 7
-13 14 -39 16 -58 4 -44 4 -445 0 -486 -4 -44 17 -60 43 -32 11 12 20 18 20
14 0 -4 10 2 22 14 12 11 28 20 35 20 8 0 12 4 9 9 -3 5 8 14 24 21 17 7 30
17 30 23 0 6 3 8 6 4 5 -5 27 10 59 40 7 7 15 9 19 6 3 -3 8 2 12 11 3 9 10
13 15 10 5 -3 9 -1 9 3 0 5 16 17 35 27 19 11 35 23 35 28 0 5 4 7 9 4 5 -3
11 1 15 9 3 8 10 15 15 15 9 0 28 11 104 63 10 6 23 11 28 9 5 -1 9 2 9 6 0 9
77 62 90 62 4 0 11 7 14 16 3 8 10 12 16 9 5 -3 10 -3 10 2 0 9 90 68 103 68
4 0 12 6 16 14 5 7 14 10 20 7 6 -4 11 0 11 8 0 9 3 15 8 14 4 -1 23 7 44 17
l36 18 -23 23 c-13 13 -31 24 -40 24 -8 0 -15 3 -15 8 0 4 -21 18 -47 32 -27
14 -56 32 -66 41 -10 9 -33 25 -52 35 -19 10 -35 22 -35 27 0 4 -4 5 -10 2 -6
-3 -10 -1 -10 4 0 6 -7 11 -15 11 -8 0 -15 5 -15 10 0 6 -7 10 -15 10 -8 0
-15 5 -15 10 0 6 -5 10 -10 10 -6 0 -20 9 -32 20 -12 11 -28 20 -35 20 -7 0
-13 5 -13 10 0 6 -7 10 -15 10 -8 0 -15 5 -15 12 0 6 -3 9 -6 5 -4 -3 -12 -1
-20 6 -34 30 -44 37 -44 30 0 -4 -7 0 -14 10 -8 10 -18 19 -23 19 -18 1 -52
21 -48 28 2 4 -11 13 -30 20 -19 8 -35 17 -35 21 0 3 -13 12 -30 19 -16 7 -30
17 -30 22 0 5 -4 7 -9 4 -5 -3 -11 1 -15 9 -3 8 -12 15 -20 15 -8 0 -16 4 -18
9 -1 5 -10 11 -18 13 -8 2 -22 11 -31 21 -9 9 -21 17 -28 17 -6 0 -11 4 -11 9
0 5 -8 11 -17 15 -10 3 -31 15 -48 26 -16 11 -38 23 -47 26 -10 4 -15 11 -11
17 4 6 0 8 -10 4 -9 -3 -18 0 -21 9 -3 8 -12 14 -21 14 -8 0 -15 4 -15 8 0 7
-39 30 -60 35 -6 2 -35 26 -56 45 -8 7 -14 11 -14 7 0 -4 -7 1 -16 9 -8 9 -25
16 -37 16 -18 0 -19 2 -7 10 13 9 13 10 -1 10 -8 0 -25 9 -36 19 -12 11 -24
17 -27 14 -3 -4 -6 0 -6 7 0 7 -3 10 -7 7 -3 -4 -18 3 -31 15 -14 13 -22 17
-17 9 5 -9 4 -12 -3 -7 -7 4 -12 13 -12 20 0 7 -16 18 -35 26 -19 8 -35 16
-35 20 0 3 -17 14 -37 25 -21 10 -51 30 -67 44 -16 15 -26 19 -22 11 6 -12 5
-12 -6 1 -7 9 -30 24 -50 33 -21 10 -36 22 -33 26 3 4 -6 11 -20 14 -14 4 -25
11 -25 17 0 6 -5 7 -10 4 -6 -3 -13 1 -16 9 -3 9 -10 13 -15 10 -5 -3 -9 0 -9
5 0 6 -7 11 -15 11 -8 0 -15 5 -15 10 0 6 -7 10 -15 10 -8 0 -15 5 -15 10 0 6
-7 10 -15 10 -8 0 -15 5 -15 10 0 6 -6 10 -14 10 -8 0 -21 8 -28 18 -7 9 -19
18 -26 20 -8 1 -47 25 -88 53 -41 27 -74 47 -74 43 0 -4 -11 5 -25 20 -13 14
-31 26 -40 26 -8 0 -15 5 -15 10 0 6 -7 10 -15 10 -8 0 -15 5 -15 11 0 5 -4 7
-10 4 -5 -3 -10 -1 -10 5 0 6 -4 8 -10 5 -5 -3 -10 -2 -10 3 0 5 -12 15 -27
23 -16 8 -30 16 -33 20 -3 3 -23 16 -45 29 -22 13 -49 32 -59 42 -10 9 -22 15
-26 13 -5 -3 -10 2 -14 10 -4 10 -20 15 -54 15 -38 0 -55 -5 -76 -25z"/>
<path d="M2617 2874 c-1 -1 -40 -5 -87 -8 -47 -4 -94 -9 -105 -12 -11 -2 -38
-6 -60 -9 -22 -2 -47 -6 -55 -8 -8 -2 -28 -7 -45 -11 -16 -4 -38 -10 -47 -12
-17 -5 -53 -64 -39 -64 9 0 7 -167 -2 -176 -4 -4 -2 -13 4 -21 9 -10 8 -17 -1
-28 -7 -8 -8 -15 -3 -15 13 0 11 -63 -2 -72 -7 -5 -7 -8 0 -8 7 0 9 -155 8
-447 -1 -247 0 -462 2 -478 5 -32 13 -35 103 -39 12 -1 22 -3 22 -6 0 -3 12
-7 28 -8 15 -1 38 -5 52 -8 58 -14 299 -19 525 -10 106 4 104 4 85 16 -8 5
-10 10 -5 10 7 0 11 54 12 153 0 83 2 166 3 182 4 55 0 75 -15 75 -8 0 -15 3
-15 8 0 4 -17 8 -38 8 -20 1 -61 4 -90 6 -34 3 -58 0 -66 -7 -7 -7 -11 -40 -9
-89 1 -42 -2 -74 -5 -72 -4 2 -50 5 -102 7 -52 2 -98 8 -102 13 -5 7 -8 5 -8
-4 0 -12 -2 -12 -8 -2 -7 9 -15 10 -35 3 -15 -6 -27 -7 -27 -2 0 5 -9 11 -21
14 -13 3 -18 10 -14 17 11 18 11 80 0 80 -5 0 -4 4 4 9 9 6 10 11 2 15 -8 5
-8 13 0 28 6 11 7 23 3 27 -5 3 -9 60 -9 126 0 68 -4 123 -10 127 -7 5 -7 8 0
8 6 0 9 63 7 174 -3 168 -3 175 18 186 11 6 25 8 30 5 6 -3 10 -3 10 2 0 4 55
9 122 10 133 2 156 -5 150 -47 -9 -70 -7 -83 18 -99 14 -9 21 -11 16 -3 -4 6
-3 12 3 12 5 0 13 -5 17 -11 4 -7 9 -8 17 0 6 6 17 7 26 2 19 -10 111 -12 112
-2 0 3 3 15 5 26 3 11 5 25 5 30 0 33 -1 93 -1 108 0 9 0 23 0 30 0 6 2 60 4
119 5 131 15 122 -159 134 -100 7 -225 11 -228 8z"/>
<path d="M3336 2872 c-10 -9 -34 -13 -111 -16 -116 -5 -112 0 -108 -114 4
-116 4 -97 1 -204 -2 -49 1 -88 6 -88 5 0 4 -5 -1 -12 -5 -7 -7 -40 -6 -73 4
-73 4 -63 1 -158 -2 -42 1 -77 5 -77 5 0 5 -6 1 -12 -11 -17 -12 -97 -2 -125
4 -12 3 -25 -2 -28 -6 -3 -6 -15 0 -30 5 -14 6 -25 2 -25 -10 0 -9 -92 1 -107
5 -7 5 -13 0 -13 -11 0 -10 -331 1 -348 5 -8 17 -11 30 -7 43 12 62 15 121 20
33 2 60 5 60 5 0 1 8 3 18 5 9 2 17 -1 17 -7 0 -7 4 -7 13 -1 6 5 28 10 47 12
19 1 37 6 40 11 3 5 11 5 20 0 8 -5 21 -5 30 0 16 9 50 18 95 25 11 2 21 4 23
5 1 2 5 3 10 5 55 15 72 20 102 33 19 9 39 15 44 13 5 -1 18 6 29 16 11 10 17
13 14 6 -5 -7 4 -6 23 4 17 8 38 16 46 17 9 1 20 9 25 17 7 12 9 12 9 -1 0
-10 8 -7 23 11 l23 26 -2 549 c-1 302 -2 552 -3 556 -1 6 -77 5 -181 -4 -8 0
-22 -6 -30 -12 -18 -13 -19 -55 -19 -596 0 -246 7 -215 -58 -245 -32 -14 -85
-35 -118 -47 -33 -11 -68 -24 -77 -29 -31 -17 -87 -13 -108 6 -14 13 -17 22
-10 29 5 5 10 57 10 116 0 71 4 110 13 119 10 11 10 13 0 7 -7 -4 -13 -2 -13
3 0 6 6 11 13 11 8 0 9 3 1 8 -12 8 -12 120 -1 139 4 6 3 14 -2 17 -9 6 -7 69
4 85 3 5 1 12 -5 16 -11 7 -11 395 0 395 13 0 4 66 -10 76 -22 16 -47 23 -54
16z"/>
<path d="M1618 2855 c-3 -3 -34 -7 -70 -8 -35 -2 -69 -7 -75 -10 -7 -4 -14 -3
-17 2 -4 6 -20 6 -41 0 -35 -10 -48 -12 -150 -25 -27 -3 -52 -10 -53 -15 -2
-5 -7 -7 -11 -5 -3 3 -6 -252 -6 -565 0 -535 1 -571 18 -580 9 -6 27 -12 40
-14 12 -3 42 -9 67 -14 25 -6 60 -13 78 -16 17 -3 44 -7 60 -9 149 -25 231
-31 377 -30 207 2 239 3 232 10 -3 4 0 13 8 21 13 12 22 75 16 107 -1 5 -2 68
-2 141 -1 135 -3 149 -29 152 -8 1 -25 4 -37 7 -55 14 -71 17 -112 21 -59 5
-68 -9 -60 -88 3 -35 2 -65 -4 -68 -5 -4 -55 -5 -111 -3 -168 6 -234 15 -245
33 -3 5 -6 130 -5 278 0 178 -3 270 -10 275 -7 5 -7 8 -1 8 6 0 10 17 10 38 0
20 6 42 13 47 22 17 341 12 352 -5 5 -8 7 -40 5 -72 -2 -32 0 -58 6 -58 18 0
24 -2 36 -11 7 -7 14 -6 18 1 4 7 12 7 26 0 13 -8 19 -7 19 0 0 6 5 8 13 3 16
-10 57 -12 57 -3 0 4 8 7 17 6 16 -1 18 12 20 119 3 213 5 250 16 265 6 8 8
12 3 8 -5 -4 -15 -1 -22 7 -8 7 -23 11 -34 8 -13 -3 -20 0 -20 8 0 11 -2 11
-10 -1 -7 -11 -10 -12 -10 -2 0 8 -10 13 -22 12 -13 -1 -25 -1 -28 0 -12 5
-73 10 -184 15 -65 3 -122 8 -126 10 -4 2 -9 2 -12 0z"/>
<path d="M376 2375 c-10 -11 -13 -47 -11 -159 3 -144 -1 -190 -15 -181 -4 2
-18 -17 -31 -43 l-24 -47 0 -510 0 -510 23 -36 c12 -20 36 -42 52 -49 61 -25
143 17 152 78 9 68 8 1062 -2 1062 -5 0 -10 6 -10 13 0 7 -15 27 -34 43 l-34
31 2 151 c1 127 -1 153 -14 158 -28 13 -40 12 -54 -1z"/>
</g>
</svg>
